<svg width="538.5" height="204.323" xmlns="http://www.w3.org/2000/svg" viewBox="-19.25 -27.161 538.5 204.323" style="background:0 0" preserveAspectRatio="xMidYMid"><defs><filter id="editing-hole" x="-100%" y="-100%" width="300%" height="300%"><feFlood flood-color="#0a0a0a" result="black"/><feMorphology operator="dilate" radius="2" in="SourceGraphic" result="erode"/><feGaussianBlur in="erode" stdDeviation="4" result="blur"/><feOffset in="blur" dx="2" dy="2" result="offset"/><feComposite operator="atop" in="offset" in2="black" result="merge"/><feComposite operator="in" in="merge" in2="SourceGraphic" result="inner-shadow"/></filter></defs><g filter="url(#editing-hole)"><path d="M64.945 125.85q-1.04 0-1.18-1.38 4.63-22.01 6.14-34.08-.55.14-2 .14-1.51 0-2.65-.31-1.14-.32-1.14-1.07 0-1.25.86-1.56.86-.31 1.83-.27.97.03 1.24.03l2.42-.07.2-1.72q1.11-9.25 3.18-18.98-4.9 1.31-7.83 2.56-2.94 1.24-5.21 2.55-1.38.76-1.8.76-1.24 0-1.24-1.24 0-1.66 3.21-3.28 3.21-1.62 5.35-2.24 2.14-.63 8.35-2.42.76-3.38 1.17-4.55.76-1.04 1.72-1.04 1.25 0 1.25 1.04 0 .55-.35 1.1l-.48 2.55q16.01-4 36.98-4.34 1.18.34 1.18 1.17 0 .62-.52 1.21-.52.58-1.21.79-21.18.35-37.12 4.49l-1.17 5.79q-.9 4.35-1.38 7.07-.49 2.73-.9 6.52l-.21 1.87q7.52-.69 11.97-.93 4.45-.25 9.01-.25.48 0 .72.35.24.34.24.76 0 .69-.51 1.28-.52.58-1.28.72-2.55.21-5.38.28-9.94.34-15.18.89-1.04 7.73-2.9 17.36-1.86 9.62-3.52 17.07-.62 1.38-1.86 1.38zm44.78-.69q-.97 0-.97-1.24l1.59-8.21 2.9-14.56 1.93-9.66q.28-1.52.76-2.21t1.24-.69q.69 0 1.07.35.38.34.38 1.24 0 1.59-.97 4.83-.48 1.59-.69 2.69-.27.97-.62 2.18-.34 1.2-.76 2.79 1.87-4.21 3.52-6.73 1.66-2.52 4.14-4.79 2.35-2 4.69-2 1.73 0 2.9.72 1.18.72 1.18 1.69 0 .76-.56 1.21-.55.45-1.38.45-.62 0-1.17-.28-.41-.34-1.1-.34-.9 0-2.63 1.24-3.24 2.34-5.48 6.17t-3.52 7.73q-1.28 3.9-2.73 9.42l-.62 2.55q-1.03 5.45-3.1 5.45zm29.94-.41q-2.2 0-3.45-.72-1.24-.73-2-2.25-1.45-2.69-1.45-6.48 0-6.63 2.01-12.6 2-5.96 5.45-10.04 3.31-3.86 7.24-3.86 2.07 0 3.28 1.69t1.21 4.11q0 4.21-2.18 7.31-2.17 3.11-5.83 5.18-3.17 1.86-7.73 3.72l-.13 4.97q0 5.8 3.52 5.8 1.44 0 2.79-.56 1.35-.55 2.93-1.51 1.87-1.11 2.62-1.11 1.18 0 1.18 1.24 0 .9-1.69 2.14-1.69 1.24-3.97 2.11-2.28.86-3.8.86zm-2.89-17.25q4.62-1.86 7.03-3.31 2.42-1.45 3.7-3.66 1.27-2.21 1.27-5.8 0-2.69-2.27-2.69-2.01 0-4.7 3.66-2.83 3.66-4.55 9.59-.48 1.66-.48 2.21zm25.25 17.25q-2.21 0-3.45-.72-1.24-.73-2-2.25-1.45-2.69-1.45-6.48 0-6.63 2-12.6 2-5.96 5.45-10.04 3.31-3.86 7.25-3.86 2.07 0 3.27 1.69 1.21 1.69 1.21 4.11 0 4.21-2.17 7.31-2.17 3.11-5.83 5.18-3.18 1.86-7.73 3.72l-.14 4.97q0 5.8 3.52 5.8 1.45 0 2.8-.56 1.34-.55 2.93-1.51 1.86-1.11 2.62-1.11 1.17 0 1.17 1.24 0 .9-1.69 2.14-1.69 1.24-3.96 2.11-2.28.86-3.8.86zm-2.9-17.25q4.63-1.86 7.04-3.31 2.42-1.45 3.69-3.66 1.28-2.21 1.28-5.8 0-2.69-2.28-2.69-2 0-4.69 3.66-2.83 3.66-4.55 9.59-.49 1.66-.49 2.21zm32.64 17.6q-4.35 0-7.52-3.04-3.18-3.04-4.8-7.59-1.62-4.56-1.62-8.9 0-5.94 1.86-13.91 1.87-7.97 5.25-15.9 3.59-8.49 8.38-13.7 4.8-5.21 9.97-5.21 3.45 0 6.38 2.07 2.94 2.07 4.66 5.28 1.73 3.21 1.73 6.32-.14.96-.55 1.44-.42.49-.97.49-.69 0-1.24-.69t-.69-1.93q-.55-4.35-3.11-7.01-2.55-2.65-6.28-2.65-3.72 0-8 5.1-3.59 4.28-6.8 11.52-3.21 7.25-5.14 14.74-1.93 7.48-1.93 12.31 0 7.66 2.83 12.77 2.83 5.1 8.14 5.1 4.14 0 9.45-3.86l1.18-.83q.27-.21 1.24-.9.97-.69 1.45-.69 1.17 0 1.17 1.25 0 .76-.65 1.38-.66.62-2.04 1.51-1.38.97-1.52 1.11-5.86 4.42-10.83 4.42zm30.15-.42q-3.59 0-5.35-2.83-1.75-2.83-1.75-6.76 0-6.28 2.1-12.18 2.1-5.9 5.76-9.76 3.52-3.94 7.94-3.94 6.34 0 6.34 9.66 0 4.83-1.58 9.87-1.59 5.04-4.11 8.97-2.52 3.93-5.21 5.66-2.07 1.31-4.14 1.31zm.55-3.1q2.14 0 4.8-3.73 2.66-3.73 4.45-9.25 1.86-5.52 1.86-9.38 0-4-.48-4.97-.41-1.03-1.03-1.45-.63-.41-1.94-.41-1.45 0-3.03 1.1-3.18 2-5.52 6.9-3.66 7.32-3.66 14.22 0 4.69 2.69 6.48.97.49 1.86.49zm36.23 3.72q-.83 0-1.48-1.96-.66-1.97-.66-3.63 0-1.38.41-3.24-1.45 4.28-3.65 6.24-2.21 1.97-5.66 1.97-3.24 0-4.9-2.66-1.66-2.65-1.66-5.96 0-10.29 3.87-17.46 1.86-3.24 3.24-4.87 1.38-1.62 3.59-3.07 2.14-1.45 5.38-1.45 3.18 0 4.62 3.11l1.18-5.18q2.27-9.86 3.79-17.31l1.24-6.21.76-3.59q0-.83.59-1.49.59-.65 1.28-.65 1.44 0 1.44 1.59v.27q0 1.86-2.34 12.56-2.42 11.11-3.11 15.39-.75 4.41-2.69 12.42l-.96 3.79q-1.59 6.07-2.31 9.59-.73 3.52-.66 6.01 0 1.86.62 3.86-.07.76-.72 1.35-.66.58-1.21.58zm-10.42-4q1.59 0 4.52-4.04 2.93-4.03 5.14-9.69 2.21-5.66 2.21-10.42 0-1.86-1.07-3.45t-2.8-1.59q-3.17 0-5.93 3.97t-4.49 9.9q-1.65 5.59-1.65 9.39 0 2.55 1 4.24 1 1.69 3.07 1.69zm30.22 3.45q-2.21 0-3.45-.72-1.24-.73-2-2.25-1.45-2.69-1.45-6.48 0-6.63 2-12.6 2-5.96 5.45-10.04 3.32-3.86 7.25-3.86 2.07 0 3.28 1.69 1.2 1.69 1.2 4.11 0 4.21-2.17 7.31-2.17 3.11-5.83 5.18-3.17 1.86-7.73 3.72l-.14 4.97q0 5.8 3.52 5.8 1.45 0 2.8-.56 1.34-.55 2.93-1.51 1.86-1.11 2.62-1.11 1.17 0 1.17 1.24 0 .9-1.69 2.14-1.69 1.24-3.96 2.11-2.28.86-3.8.86zm-2.9-17.25q4.63-1.86 7.04-3.31 2.42-1.45 3.69-3.66 1.28-2.21 1.28-5.8 0-2.69-2.28-2.69-2 0-4.69 3.66-2.83 3.66-4.55 9.59-.49 1.66-.49 2.21zm44.3 47.47q-1.1 0-1.24-1.45 2.14-13.18 3.69-19.49 1.55-6.31 4.11-14.59-6.28 5.66-16.43 5.66-4.96 0-8.45-2.9-3.48-2.9-5.28-7.52-1.79-4.63-1.79-9.87 0-9.94 4.11-20.98 4.1-11.04 10.48-18.42 6.39-7.38 12.73-7.38 5.73 0 9.22 3.41 3.48 3.42 4.52 9.49-.28 2.07-1.11 2.07-.69 0-1.69-1.52t-1.97-3.72q-2.69-6.49-8.97-6.49-6.21 0-11.8 7.07-5.58 7.07-8.96 17.11-3.39 10.04-3.39 17.91 0 8.21 3.04 13.42 3.04 5.21 9.8 5.21 11.93 0 16.28-6.62 1.11-1.66 1.52-3.11.41-1.45.41-3.04-.34-.96-3.31-4-2.97-3.03-5.52-4.83-4.41.9-10.07 1.66-1.38-.14-1.38-1.24 0-.9.83-1.59 4.48-3.24 7.79-3.24 2 0 3.87 1.03 8.41-1.86 18.76-5.17 1.66 0 1.66 1.17 0 .41-.28 1.03-8.9 14.7-13.38 31.68-1.45 5.38-2.28 9.35-.83 3.96-2.14 10.52l-1.45 7.45q-.07.76-.72 1.35-.66.58-1.21.58zm11.18-48.09q1.1-2.42 2.93-6.07 1.83-3.66 2.52-4.83-6.21 2.07-12.28 3.52 1.59 1.51 3.66 3.79 2.07 2.28 3.17 3.59zm15.73 18.28q-.96 0-.96-1.24l1.58-8.21 2.9-14.56 1.93-9.66q.28-1.52.76-2.21t1.24-.69q.69 0 1.07.35.38.34.38 1.24 0 1.59-.96 4.83-.49 1.59-.69 2.69-.28.97-.62 2.18-.35 1.2-.76 2.79 1.86-4.21 3.52-6.73 1.65-2.52 4.14-4.79 2.34-2 4.69-2 1.72 0 2.9.72 1.17.72 1.17 1.69 0 .76-.55 1.21-.56.45-1.38.45-.62 0-1.18-.28-.41-.34-1.1-.34-.9 0-2.62 1.24-3.25 2.34-5.49 6.17t-3.52 7.73q-1.27 3.9-2.72 9.42l-.62 2.55q-1.04 5.45-3.11 5.45zm45.27-.96q-1.59 0-2.94-1.69-1.34-1.69-1.34-3.63 0-4.27 2.28-14.49-1.73 3.73-4.46 7.63-2.72 3.9-5.34 6.86-2.63 2.97-3.87 3.87-1.72 1.31-3.79 1.31-3.94 0-3.94-4.97 0-4.83 3.66-12.04 3.66-7.21 8.7-12.52 5.03-5.25 8.14-5.25 3.17 0 3.59 2.76.2.83.2 1.8.35-.21.76-.21 1.59 0 1.59 1.52v.27l-.83 3.04q-.97 3.45-2 10.21-1.04 6.76-1.04 11.25l.69.41q1.66 1.04 1.66 2.07 0 .69-.48 1.25-.49.55-1.24.55zm-18.91-3.73q.76 0 1.24-.48 7.04-6 12.49-16.63 2.35-4.42 2.93-5.8.59-1.38.59-2.69 0-.69-.34-1.24-.35-.55-.9-.55-.69 0-1.8.62-2.76 1.45-6.52 6.14-3.76 4.69-6.17 9.94-2.56 5.31-2.56 9.45 0 1.24 1.04 1.24zm29.81 4.56q-.69 0-1.18-.28-.48-.28-.48-.69.62-1.93.97-4 .48-2.56 1.1-4.28 2.69-10.63 4.69-24.22l.21-1.17q0-.49.97-1.59.62-.28 1.03-.28.9 0 1.24 1.18v.55q-.07 4.55-1.51 10.69l-1.73 7.25 1.66-3.59q3.58-8.42 6.9-12.14 3.1-3.52 6.9-3.52 2 0 3.34 1.65 1.35 1.66 1.35 3.94v.55q-.07.21-.07.55 3.73-4.55 7.8-6.21 1.31-.55 2.55-.55 1.31 0 2.41 1.24 1.11 1.24 1.11 3.18 0 3.79-1.52 9.03-.97 3.18-1.52 4.77-3.31 9.79-3.65 13.24-.07.62-.21 1.56-.14.93-.21 1.13-.55 1.66-1.86 1.66-1.59 0-1.59-3.38 0-2.07.76-4.55.62-1.87 1.31-4.21.21-.83 1.31-4.01 1.59-4.48 2.49-7.59.89-3.1 1.24-6.83 0-1.31-.31-1.62-.31-.31-1.28-.31-1.03 0-2.86 1.24-1.83 1.25-3.62 3.32-4.14 4.69-6.35 12.14-.69 2.55-1.18 3.66-2.27 6.9-2.82 8.97-.56 2.2-.9 2.62-.42.55-1.24.55-1.59 0-1.73-1.72.69-4.83 1.93-8.56 1.25-3.73 3.11-8.35 1.17-3.04 2.03-6.11.87-3.07.87-5.21 0-2.34-1.45-2.34-2.42 0-5.52 4.52-3.11 4.52-5.73 10-2.62 5.49-3.38 7.77-.48 1.31-.76 2.1t-.41 1.28q-2.21 6.97-4.21 6.97z" fill="#0a0a0a"/></g><style></style></svg>